<?xml version="1.0" encoding="iso-8859-1"?>
<!-- Generator: Adobe Illustrator 19.0.0, SVG Export Plug-In . SVG Version: 6.00 Build 0)  -->
<svg version="1.1" id="Layer_1" xmlns="http://www.w3.org/2000/svg" xmlns:xlink="http://www.w3.org/1999/xlink" x="0px" y="0px"
	 viewBox="0 0 489.999 489.999" style="enable-background:new 0 0 489.999 489.999;" xml:space="preserve">
<g>
	<g>
		<path d="M469.2,448h-20.8V96.3l38.3-64.2C495,18.2,485,0.5,468.8,0.5H21.3c-16.1,0-26.1,17.4-18,31.3l37.4,64.4v351.6H21.3
			c-10.8,0-20.1,8-21.2,18.8c-1.2,12.4,8.6,22.9,20.7,22.9h447.9c10.8,0,20.2-8,21.2-18.8C491.1,458.4,481.3,448,469.2,448z
			 M406.8,90.1V448H82.2v-58.3H128c11.4,0,20.8-9.4,20.8-20.8c0-11.4-9.4-20.8-20.8-20.8H82.2V295H128c11.4,0,20.8-9.4,20.8-20.8
			c0-11.4-9.4-20.8-20.8-20.8H82.2v-53.1H128c11.4,0,20.8-9.4,20.8-20.8s-9.4-20.8-20.8-20.8H82.2V90.1c-0.1-7.1-13.8-29.3-26-48.9
			h376.6C432.8,41.2,404.8,83.6,406.8,90.1z"/>
	</g>
</g>
<g>
</g>
<g>
</g>
<g>
</g>
<g>
</g>
<g>
</g>
<g>
</g>
<g>
</g>
<g>
</g>
<g>
</g>
<g>
</g>
<g>
</g>
<g>
</g>
<g>
</g>
<g>
</g>
<g>
</g>
</svg>
