<?xml version="1.0" encoding="iso-8859-1"?>
<!-- Generator: Adobe Illustrator 18.0.0, SVG Export Plug-In . SVG Version: 6.00 Build 0)  -->
<!DOCTYPE svg PUBLIC "-//W3C//DTD SVG 1.1//EN" "http://www.w3.org/Graphics/SVG/1.1/DTD/svg11.dtd">
<svg version="1.1" id="Capa_1" xmlns="http://www.w3.org/2000/svg" xmlns:xlink="http://www.w3.org/1999/xlink" x="0px" y="0px"
	 viewBox="0 0 373.867 373.867" style="enable-background:new 0 0 373.867 373.867;" xml:space="preserve">
<path d="M364.702,67.427c-5.689-6.661-14.009-10.497-22.769-10.497h-62.898C262.098,23.203,227.177,0,186.934,0
	S111.77,23.203,94.832,56.93H31.934c-8.76,0-17.08,3.836-22.769,10.497C3.477,74.088,0.99,82.907,2.361,91.559
	c6.411,40.458,12.941,85.173,19.258,128.417c6.316,43.25,12.849,87.972,19.288,128.634c2.304,14.547,14.845,25.258,29.573,25.258
	h232.906c14.729,0,27.27-10.711,29.573-25.258c6.439-40.662,12.972-85.384,19.288-128.634
	c6.316-43.244,12.847-87.959,19.258-128.417C372.877,82.907,370.391,74.088,364.702,67.427z M197.912,102.997L152.934,69.8
	l15.56,33.197h-44.557c0-34.793,28.205-62.997,62.997-62.997s62.997,28.205,62.997,62.997H197.912z"/>
<g>
</g>
<g>
</g>
<g>
</g>
<g>
</g>
<g>
</g>
<g>
</g>
<g>
</g>
<g>
</g>
<g>
</g>
<g>
</g>
<g>
</g>
<g>
</g>
<g>
</g>
<g>
</g>
<g>
</g>
</svg>
